C:\GBW_MyPrograms\KinderuniversiteitApp\Resultaten\Ellis_v10102025\Reus\Reus_v1.mot
version=1
nRows=13
nColumns=29
inDegrees=yes
endheader
                time	         pelvis_tilt	           pelvis_tx	           pelvis_ty	       hip_flexion_l	       hip_flexion_r	        knee_angle_l	        knee_angle_r	       ankle_angle_l	       ankle_angle_r	    lumbar_extension	hamstrings_r/activation	bifemsh_r/activation	glut_max_r/activation	iliopsoas_r/activation	rect_fem_r/activation	  vasti_r/activation	gastroc_r/activation	 soleus_r/activation	tib_ant_r/activation	hamstrings_l/activation	bifemsh_l/activation	glut_max_l/activation	iliopsoas_l/activation	rect_fem_l/activation	  vasti_l/activation	gastroc_l/activation	 soleus_l/activation	tib_ant_l/activation	
          0.10000001	         -9.11975537	          0.27040784	          0.81038445	         19.71879789	         20.14362379	        -29.00193425	        -28.37120019	          9.75074318	          9.83829845	        -10.37296904	          0.21037009	          0.33508196	          0.26885859	          0.32481617	          0.43380783	          0.43351662	          0.43146236	          0.43158421	          0.32758368	          0.42745652	          0.30134427	          0.52742590	          0.15696912	          0.18593292	          0.47767201	          0.29381696	          0.55649487	          0.16143539	
          0.10200001	         -9.11163196	          0.79685818	          0.80920127	         19.68505300	         20.39295343	        -29.42605919	        -28.31430052	          9.86192151	          9.81835199	        -10.37070680	          0.18335615	          0.30794611	          0.31737068	          0.29717107	          0.46064067	          0.47754228	          0.39826059	          0.41305501	          0.32432029	          0.39806530	          0.27560787	          0.55813668	          0.13472727	          0.24207442	          0.51417345	          0.26868685	          0.58231554	          0.13920568	
          0.10400001	         -9.11782257	          0.93573162	          0.80962955	         19.87198191	         20.32893812	        -29.48003384	        -28.41000324	          9.95012440	          9.79092295	        -10.36577686	          0.15979014	          0.28527766	          0.33594480	          0.27120794	          0.43041020	          0.44546580	          0.44442229	          0.45814386	          0.29428320	          0.36965357	          0.25125692	          0.58488462	          0.11342839	          0.23862187	          0.54521765	          0.33043812	          0.60538180	          0.11577621	
          0.10600001	         -9.13469152	          1.01414215	          0.81033610	         19.93488997	         20.24920007	        -30.01932467	        -28.52739682	         10.01788827	          9.76264561	        -10.35816438	          0.23436119	          0.34365807	          0.30834472	          0.32809147	          0.39951218	          0.41173049	          0.48561994	          0.49798645	          0.26463210	          0.33997305	          0.22802892	          0.60771079	          0.09524424	          0.29083903	          0.57187479	          0.31991516	          0.62485848	          0.09349916	
          0.10800001	         -9.15173660	          1.06328627	          0.81074921	         20.08749045	         20.20058571	        -30.70098683	        -28.61256801	         10.07335880	          9.73898507	        -10.34718565	          0.28200139	          0.39220823	          0.28336510	          0.30457897	          0.37117480	          0.37852227	          0.52199939	          0.53297708	          0.23612385	          0.31078537	          0.20622498	          0.62709289	          0.08283642	          0.33333791	          0.59366608	          0.29408080	          0.59444747	          0.07363778	
          0.11000001	         -9.16981555	          1.09524982	          0.81119398	         20.29992767	         20.13665187	        -31.59432193	        -28.76902849	         10.12019482	          9.71736389	        -10.33287524	          0.26249246	          0.37004411	          0.33995622	          0.27877664	          0.35068931	          0.42109020	          0.55418750	          0.56365100	          0.20870247	          0.28232258	          0.18604184	          0.64345918	          0.09489698	          0.32524828	          0.58789175	          0.26700955	          0.55708008	          0.06232767	
          0.11200001	         -9.18435906	          1.11640853	          0.81194795	         20.58164534	         20.09603269	        -32.64386307	        -29.41715451	         10.15342242	          9.69204695	        -10.31714883	          0.24217843	          0.34499719	          0.39179367	          0.25303050	          0.38116003	          0.46281997	          0.58268135	          0.59034763	          0.18243588	          0.25453863	          0.16772077	          0.65816341	          0.08500332	          0.30550921	          0.55186508	          0.23982811	          0.51976417	          0.06003027	
          0.11400001	         -9.19005901	          1.13058512	          0.81116052	         20.46079386	         20.38078516	        -31.92455451	        -29.46191745	         10.17544180	          9.75654356	        -10.30254926	          0.24039945	          0.32711189	          0.43551401	          0.22934458	          0.35665916	          0.49123655	          0.60778929	          0.61456879	          0.15676613	          0.22667072	          0.15063158	          0.63778111	          0.11314216	          0.28808566	          0.51724172	          0.21274222	          0.48328233	          0.06894201	
          0.11600001	         -9.19124869	          1.14020179	          0.81040058	         20.39258798	         20.62853494	        -31.26295229	        -29.95330264	         10.18559807	          9.79201449	        -10.29064941	          0.22670897	          0.31490956	          0.47161013	          0.20722914	          0.36489739	          0.46651181	          0.62974708	          0.63572373	          0.13219776	          0.19908798	          0.13492089	          0.60889700	          0.12700802	          0.26790497	          0.48322775	          0.18610590	          0.44746942	          0.15127917	
          0.11800001	         -9.18130919	          1.14682018	          0.80987478	         20.43053095	         21.08968934	        -30.99651838	        -30.50766477	         10.18858888	          9.80497335	        -10.28231820	          0.20575343	          0.32840757	          0.44357605	          0.18886188	          0.40798800	          0.43723707	          0.64883181	          0.65403024	          0.10893947	          0.17134503	          0.11898661	          0.58057200	          0.11609198	          0.24647974	          0.44996609	          0.16007482	          0.41248802	          0.22522740	
          0.12000001	         -9.16776492	          1.15145622	          0.80941049	         20.57605138	         21.60272744	        -31.50677848	        -31.62813693	         10.16552685	          9.80242940	        -10.27589156	          0.18170181	          0.32582095	          0.41221255	          0.22864962	          0.44958316	          0.47429544	          0.66548091	          0.66970209	          0.08739342	          0.23423491	          0.10195404	          0.55728250	          0.10058211	          0.22424694	          0.41660290	          0.13469209	          0.37792384	          0.29102557	
          0.12200001	         -9.13768233	          1.15478982	          0.80868584	         21.05275924	         22.29615095	        -32.62611732	        -33.64920225	         10.09623629	          9.79788429	        -10.27082840	          0.15592727	          0.30080731	          0.42439504	          0.20857275	          0.48778651	          0.50996982	          0.67997733	          0.68291631	          0.07039820	          0.29660008	          0.08398016	          0.57133035	          0.08202433	          0.20086542	          0.38240188	          0.10986863	          0.34356612	          0.34949090	
          0.12400001	         -9.10249265	          1.15725127	          0.80728729	         21.12618463	         23.29518030	        -32.76770524	        -34.94257307	          9.99895340	          9.81371794	        -10.26709761	          0.13082827	          0.27528816	          0.45072970	          0.18706804	          0.52144821	          0.54252370	          0.69226474	          0.69427122	          0.08482648	          0.35307788	          0.07092263	          0.53578641	          0.06001627	          0.17639469	          0.34794239	          0.08540505	          0.30990909	          0.40098251	
